<svg width="68" height="68" viewBox="0 0 68 68" fill="none" xmlns="http://www.w3.org/2000/svg">
<g clip-path="url(#clip0_38_212)">
<path d="M14.6758 50.4953C19.3375 55.9805 26.2305 59.5 34 59.5C48.0914 59.5 59.5 48.0914 59.5 34H68C68 52.7797 52.7797 68 34 68C23.8797 68 14.8352 63.5641 8.61953 56.5516L0 65.1711V42.5H22.6711L14.6758 50.4953ZM53.3242 17.5047C48.6492 12.0195 41.7695 8.5 34 8.5C19.9086 8.5 8.5 19.9086 8.5 34H0C0 15.2203 15.2203 0 34 0C44.1203 0 53.1648 4.43594 59.3805 11.4484L68 2.8289V25.5H45.3289L53.3242 17.5047Z" fill="#C31A2B"/>
</g>
<defs>
<clipPath id="clip0_38_212">
<rect width="68" height="68" fill="white" transform="matrix(1 0 0 -1 0 68)"/>
</clipPath>
</defs>
</svg>
