<svg width="68" height="68" viewBox="0 0 68 68" fill="none" xmlns="http://www.w3.org/2000/svg">
<path d="M39.2061 7.96875H18.3811C17.0003 7.96875 15.676 8.51726 14.6997 9.49363C13.7233 10.47 13.1748 11.7942 13.1748 13.175V54.825C13.1748 56.2058 13.7233 57.53 14.6997 58.5064C15.676 59.4827 17.0003 60.0313 18.3811 60.0313H49.6186C50.9993 60.0313 52.3236 59.4827 53.2999 58.5064C54.2763 57.53 54.8248 56.2058 54.8248 54.825V23.5875L39.2061 7.96875Z" stroke="white" stroke-width="3" stroke-linecap="round" stroke-linejoin="round"/>
<path d="M44.4129 47.0156H23.5879" stroke="white" stroke-width="3" stroke-linecap="round" stroke-linejoin="round"/>
<path d="M44.4129 36.6032H23.5879" stroke="white" stroke-width="3" stroke-linecap="round" stroke-linejoin="round"/>
<path d="M28.7941 26.1907H26.191H23.5879" stroke="white" stroke-width="3" stroke-linecap="round" stroke-linejoin="round"/>
<path d="M39.2061 7.96875V23.5875H54.8248" stroke="white" stroke-width="3" stroke-linecap="round" stroke-linejoin="round"/>
</svg>
