<svg width="68" height="68" viewBox="0 0 68 68" fill="none" xmlns="http://www.w3.org/2000/svg">
<path d="M58.8543 25.942L54.9783 14.3112C54.416 12.6182 53.3346 11.1455 51.8875 10.1023C50.4404 9.05906 48.7014 8.49842 46.9175 8.5H21.0832C19.2993 8.49842 17.5602 9.05906 16.1132 10.1023C14.6661 11.1455 13.5846 12.6182 13.0223 14.3112L9.14633 25.942C8.11673 26.374 7.23744 27.1002 6.61855 28.0295C5.99966 28.9588 5.66866 30.0501 5.66699 31.1667V45.3333C5.66699 47.4668 6.86549 49.3057 8.61083 50.2718C8.57399 50.4588 8.50033 50.6288 8.50033 50.8243V56.6667C8.50033 57.4181 8.79884 58.1388 9.33019 58.6701C9.86154 59.2015 10.5822 59.5 11.3337 59.5H14.167C14.9184 59.5 15.6391 59.2015 16.1705 58.6701C16.7018 58.1388 17.0003 57.4181 17.0003 56.6667V51H51.0003V56.6667C51.0003 57.4181 51.2988 58.1388 51.8302 58.6701C52.3615 59.2015 53.0822 59.5 53.8337 59.5H56.667C57.4184 59.5 58.1391 59.2015 58.6705 58.6701C59.2018 58.1388 59.5003 57.4181 59.5003 56.6667V50.8243C59.5003 50.6288 59.4267 50.456 59.3898 50.2718C60.2778 49.7877 61.0195 49.074 61.5373 48.2053C62.0552 47.3366 62.3302 46.3447 62.3337 45.3333V31.1667C62.3337 28.8178 60.8943 26.8005 58.8543 25.942ZM11.3337 45.3333V31.1667H56.667L56.6727 45.3333H11.3337ZM21.0832 14.1667H46.9147C48.1358 14.1667 49.2182 14.943 49.6035 16.1047L52.7372 25.5H15.2635L18.3943 16.1047C18.5823 15.5403 18.9432 15.0493 19.4258 14.7015C19.9084 14.3536 20.4883 14.1665 21.0832 14.1667Z" fill="#C31A2B"/>
<path d="M18.417 45.3333C20.7642 45.3333 22.667 43.4305 22.667 41.0833C22.667 38.7361 20.7642 36.8333 18.417 36.8333C16.0698 36.8333 14.167 38.7361 14.167 41.0833C14.167 43.4305 16.0698 45.3333 18.417 45.3333Z" fill="#C31A2B"/>
<path d="M49.583 45.3333C51.9302 45.3333 53.833 43.4305 53.833 41.0833C53.833 38.7361 51.9302 36.8333 49.583 36.8333C47.2358 36.8333 45.333 38.7361 45.333 41.0833C45.333 43.4305 47.2358 45.3333 49.583 45.3333Z" fill="#C31A2B"/>
</svg>
